<?xml version="1.0" encoding="UTF-8" standalone="no"?>
<!DOCTYPE svg PUBLIC "-//W3C//DTD SVG 1.1//EN"
 "http://www.w3.org/Graphics/SVG/1.1/DTD/svg11.dtd">
<!-- Generated by graphviz version 2.40.1 (20161225.0304)
 -->
<!-- Title: G Pages: 1 -->
<svg width="310pt" height="116pt"
 viewBox="0.00 0.00 310.37 116.00" xmlns="http://www.w3.org/2000/svg" xmlns:xlink="http://www.w3.org/1999/xlink">
<g id="graph0" class="graph" transform="scale(1 1) rotate(0) translate(4 112)">
<title>G</title>
<!-- syn -->
<g id="node1" class="node">
<title>syn</title>
<ellipse fill="none" stroke="#0a2e6b" cx="161.4375" cy="-90" rx="60.4202" ry="18"/>
<text text-anchor="start" x="121.7788" y="-86.8" font-family="Times,serif" font-size="14.00" fill="#0a2e6b">syntax</text>
<text text-anchor="start" x="158.3306" y="-86.8" font-family="Times,serif" baseline-shift="sub" font-size="14.00" fill="#0a2e6b">Haskell</text>
</g>
<!-- codegen -->
<g id="node2" class="node">
<title>codegen</title>
<ellipse fill="none" stroke="#0a2e6b" cx="57.4375" cy="-18" rx="57.3751" ry="18"/>
<text text-anchor="start" x="19.9731" y="-14.8" font-family="Times,serif" font-size="14.00" fill="#0a2e6b">syntax</text>
<text text-anchor="start" x="56.5249" y="-14.8" font-family="Times,serif" baseline-shift="sub" font-size="14.00" fill="#0a2e6b">LLVM</text>
</g>
<!-- syn&#45;&gt;codegen -->
<g id="edge1" class="edge">
<title>syn&#45;&gt;codegen</title>
<path fill="none" stroke="#0a2e6b" d="M137.3164,-73.3008C123.1402,-63.4865 105.0392,-50.955 89.6537,-40.3035"/>
<polygon fill="#0a2e6b" stroke="#0a2e6b" points="91.642,-37.4231 81.4278,-34.6087 87.6575,-43.1785 91.642,-37.4231"/>
</g>
<!-- types -->
<g id="node3" class="node">
<title>types</title>
<ellipse fill="none" stroke="#0a2e6b" cx="161.4375" cy="-18" rx="28.5497" ry="18"/>
<text text-anchor="middle" x="161.4375" y="-13.8" font-family="Times,serif" font-size="14.00" fill="#0a2e6b">types</text>
</g>
<!-- syn&#45;&gt;types -->
<g id="edge2" class="edge">
<title>syn&#45;&gt;types</title>
<path fill="none" stroke="#0a2e6b" d="M161.4375,-71.8314C161.4375,-64.131 161.4375,-54.9743 161.4375,-46.4166"/>
<polygon fill="#0a2e6b" stroke="#0a2e6b" points="164.9376,-46.4132 161.4375,-36.4133 157.9376,-46.4133 164.9376,-46.4132"/>
</g>
<!-- interp -->
<g id="node4" class="node">
<title>interp</title>
<ellipse fill="none" stroke="#0a2e6b" cx="255.4375" cy="-18" rx="46.8632" ry="18"/>
<text text-anchor="start" x="226.2891" y="-13.8" font-family="Times,serif" font-size="14.00" fill="#0a2e6b">interpreter</text>
</g>
<!-- syn&#45;&gt;interp -->
<g id="edge3" class="edge">
<title>syn&#45;&gt;interp</title>
<path fill="none" stroke="#0a2e6b" d="M183.7142,-72.937C196.3929,-63.2257 212.4271,-50.9441 226.1181,-40.4574"/>
<polygon fill="#0a2e6b" stroke="#0a2e6b" points="228.4785,-43.0583 234.289,-34.1989 224.2219,-37.5011 228.4785,-43.0583"/>
</g>
</g>
</svg>
