<?xml version="1.0" encoding="UTF-8" standalone="no"?>
<!DOCTYPE svg PUBLIC "-//W3C//DTD SVG 1.1//EN"
 "http://www.w3.org/Graphics/SVG/1.1/DTD/svg11.dtd">
<!-- Generated by graphviz version 2.40.1 (20161225.0304)
 -->
<!-- Title: G Pages: 1 -->
<svg width="389pt" height="116pt"
 viewBox="0.00 0.00 389.18 116.00" xmlns="http://www.w3.org/2000/svg" xmlns:xlink="http://www.w3.org/1999/xlink">
<g id="graph0" class="graph" transform="scale(1 1) rotate(0) translate(4 112)">
<title>G</title>
<!-- syn -->
<g id="node1" class="node">
<title>syn</title>
<ellipse fill="none" stroke="#0a2e6b" cx="190.4375" cy="-90" rx="60.4202" ry="18"/>
<text text-anchor="start" x="150.7788" y="-86.8" font-family="Times,serif" font-size="14.00" fill="#0a2e6b">syntax</text>
<text text-anchor="start" x="187.3306" y="-86.8" font-family="Times,serif" baseline-shift="sub" font-size="14.00" fill="#0a2e6b">Haskell</text>
</g>
<!-- codegen -->
<g id="node2" class="node">
<title>codegen</title>
<ellipse fill="none" stroke="#0a2e6b" cx="57.4375" cy="-18" rx="57.3751" ry="18"/>
<text text-anchor="start" x="19.9731" y="-14.8" font-family="Times,serif" font-size="14.00" fill="#0a2e6b">syntax</text>
<text text-anchor="start" x="56.5249" y="-14.8" font-family="Times,serif" baseline-shift="sub" font-size="14.00" fill="#0a2e6b">LLVM</text>
</g>
<!-- syn&#45;&gt;codegen -->
<g id="edge1" class="edge">
<title>syn&#45;&gt;codegen</title>
<path fill="none" stroke="#0a2e6b" d="M161.2501,-74.1993C141.9334,-63.7421 116.4064,-49.923 95.4996,-38.6051"/>
<polygon fill="#0a2e6b" stroke="#0a2e6b" points="97.0172,-35.4467 86.5568,-33.7638 93.6846,-41.6025 97.0172,-35.4467"/>
</g>
<!-- types -->
<g id="node3" class="node">
<title>types</title>
<ellipse fill="none" stroke="#0a2e6b" cx="190.4375" cy="-18" rx="57.0047" ry="18"/>
<text text-anchor="start" x="153.1201" y="-13.8" font-family="Times,serif" font-size="14.00" fill="#0a2e6b">typechecking</text>
</g>
<!-- syn&#45;&gt;types -->
<g id="edge2" class="edge">
<title>syn&#45;&gt;types</title>
<path fill="none" stroke="#0a2e6b" d="M190.4375,-71.8314C190.4375,-64.131 190.4375,-54.9743 190.4375,-46.4166"/>
<polygon fill="#0a2e6b" stroke="#0a2e6b" points="193.9376,-46.4132 190.4375,-36.4133 186.9376,-46.4133 193.9376,-46.4132"/>
</g>
<!-- interp -->
<g id="node4" class="node">
<title>interp</title>
<ellipse fill="none" stroke="#0a2e6b" cx="323.4375" cy="-18" rx="57.9892" ry="18"/>
<text text-anchor="start" x="285.7305" y="-13.8" font-family="Times,serif" font-size="14.00" fill="#0a2e6b">interpretation</text>
</g>
<!-- syn&#45;&gt;interp -->
<g id="edge3" class="edge">
<title>syn&#45;&gt;interp</title>
<path fill="none" stroke="#0a2e6b" d="M219.6249,-74.1993C238.9416,-63.7421 264.4686,-49.923 285.3754,-38.6051"/>
<polygon fill="#0a2e6b" stroke="#0a2e6b" points="287.1904,-41.6025 294.3182,-33.7638 283.8578,-35.4467 287.1904,-41.6025"/>
</g>
</g>
</svg>
