<?xml version="1.0" encoding="UTF-8" standalone="no"?>
<!DOCTYPE svg PUBLIC "-//W3C//DTD SVG 1.1//EN"
 "http://www.w3.org/Graphics/SVG/1.1/DTD/svg11.dtd">
<!-- Generated by graphviz version 2.40.1 (20161225.0304)
 -->
<!-- Title: G Pages: 1 -->
<svg width="504pt" height="116pt"
 viewBox="0.00 0.00 503.86 116.00" xmlns="http://www.w3.org/2000/svg" xmlns:xlink="http://www.w3.org/1999/xlink">
<g id="graph0" class="graph" transform="scale(1 1) rotate(0) translate(4 112)">
<title>G</title>
<!-- syn -->
<g id="node1" class="node">
<title>syn</title>
<ellipse fill="none" stroke="#0a2e6b" cx="256.4375" cy="-90" rx="60.4202" ry="18"/>
<text text-anchor="start" x="216.7788" y="-86.8" font-family="Times,serif" font-size="14.00" fill="#0a2e6b">syntax</text>
<text text-anchor="start" x="253.3306" y="-86.8" font-family="Times,serif" baseline-shift="sub" font-size="14.00" fill="#0a2e6b">Haskell</text>
</g>
<!-- codegen -->
<g id="node2" class="node">
<title>codegen</title>
<ellipse fill="none" stroke="#0a2e6b" cx="57.4375" cy="-18" rx="57.3751" ry="18"/>
<text text-anchor="start" x="19.9731" y="-14.8" font-family="Times,serif" font-size="14.00" fill="#0a2e6b">syntax</text>
<text text-anchor="start" x="56.5249" y="-14.8" font-family="Times,serif" baseline-shift="sub" font-size="14.00" fill="#0a2e6b">LLVM</text>
</g>
<!-- syn&#45;&gt;codegen -->
<g id="edge1" class="edge">
<title>syn&#45;&gt;codegen</title>
<path fill="none" stroke="#0a2e6b" d="M218.0683,-76.1177C185.755,-64.4264 139.3978,-47.654 104.7817,-35.1296"/>
<polygon fill="#0a2e6b" stroke="#0a2e6b" points="105.9452,-31.8285 95.351,-31.7174 103.5636,-38.411 105.9452,-31.8285"/>
</g>
<!-- types -->
<g id="node3" class="node">
<title>types</title>
<ellipse fill="none" stroke="#0a2e6b" cx="190.4375" cy="-18" rx="57.0047" ry="18"/>
<text text-anchor="start" x="153.1201" y="-13.8" font-family="Times,serif" font-size="14.00" fill="#0a2e6b">typechecking</text>
</g>
<!-- syn&#45;&gt;types -->
<g id="edge2" class="edge">
<title>syn&#45;&gt;types</title>
<path fill="none" stroke="#0a2e6b" d="M240.4607,-72.5708C232.333,-63.7041 222.308,-52.7678 213.3719,-43.0194"/>
<polygon fill="#0a2e6b" stroke="#0a2e6b" points="215.8332,-40.5248 206.4959,-35.5182 210.6731,-45.2549 215.8332,-40.5248"/>
</g>
<!-- interp -->
<g id="node4" class="node">
<title>interp</title>
<ellipse fill="none" stroke="#0a2e6b" cx="323.4375" cy="-18" rx="57.9892" ry="18"/>
<text text-anchor="start" x="285.7305" y="-13.8" font-family="Times,serif" font-size="14.00" fill="#0a2e6b">interpretation</text>
</g>
<!-- syn&#45;&gt;interp -->
<g id="edge3" class="edge">
<title>syn&#45;&gt;interp</title>
<path fill="none" stroke="#0a2e6b" d="M272.6563,-72.5708C280.9073,-63.7041 291.0842,-52.7678 300.1556,-43.0194"/>
<polygon fill="#0a2e6b" stroke="#0a2e6b" points="302.8857,-45.2233 307.1358,-35.5182 297.7612,-40.4546 302.8857,-45.2233"/>
</g>
<!-- constraints -->
<g id="node5" class="node">
<title>constraints</title>
<ellipse fill="none" stroke="#0a2e6b" cx="447.4375" cy="-18" rx="48.3427" ry="18"/>
<text text-anchor="middle" x="447.4375" y="-13.8" font-family="Times,serif" font-size="14.00" fill="#0a2e6b">constraints</text>
</g>
<!-- syn&#45;&gt;constraints -->
<g id="edge4" class="edge">
<title>syn&#45;&gt;constraints</title>
<path fill="none" stroke="#0a2e6b" d="M294.173,-75.7751C325.7379,-63.8763 370.7888,-46.8937 403.8804,-34.4194"/>
<polygon fill="#0a2e6b" stroke="#0a2e6b" points="405.1834,-37.6688 413.306,-30.8663 402.7142,-31.1187 405.1834,-37.6688"/>
</g>
</g>
</svg>
