<?xml version="1.0" encoding="UTF-8" standalone="no"?>
<!DOCTYPE svg PUBLIC "-//W3C//DTD SVG 1.1//EN"
 "http://www.w3.org/Graphics/SVG/1.1/DTD/svg11.dtd">
<!-- Generated by graphviz version 2.40.1 (20161225.0304)
 -->
<!-- Title: G Pages: 1 -->
<svg width="425pt" height="116pt"
 viewBox="0.00 0.00 424.86 116.00" xmlns="http://www.w3.org/2000/svg" xmlns:xlink="http://www.w3.org/1999/xlink">
<g id="graph0" class="graph" transform="scale(1 1) rotate(0) translate(4 112)">
<title>G</title>
<!-- syn -->
<g id="node1" class="node">
<title>syn</title>
<ellipse fill="none" stroke="#0a2e6b" cx="208.4375" cy="-90" rx="60.4202" ry="18"/>
<text text-anchor="start" x="168.7788" y="-86.8" font-family="Times,serif" font-size="14.00" fill="#0a2e6b">syntax</text>
<text text-anchor="start" x="205.3306" y="-86.8" font-family="Times,serif" baseline-shift="sub" font-size="14.00" fill="#0a2e6b">Haskell</text>
</g>
<!-- codegen -->
<g id="node2" class="node">
<title>codegen</title>
<ellipse fill="none" stroke="#0a2e6b" cx="57.4375" cy="-18" rx="57.3751" ry="18"/>
<text text-anchor="start" x="19.9731" y="-14.8" font-family="Times,serif" font-size="14.00" fill="#0a2e6b">syntax</text>
<text text-anchor="start" x="56.5249" y="-14.8" font-family="Times,serif" baseline-shift="sub" font-size="14.00" fill="#0a2e6b">LLVM</text>
</g>
<!-- syn&#45;&gt;codegen -->
<g id="edge1" class="edge">
<title>syn&#45;&gt;codegen</title>
<path fill="none" stroke="#0a2e6b" d="M176.4143,-74.7307C153.6152,-63.8595 122.7922,-49.1625 98.2319,-37.4516"/>
<polygon fill="#0a2e6b" stroke="#0a2e6b" points="99.6881,-34.2685 89.1553,-33.1237 96.6753,-40.587 99.6881,-34.2685"/>
</g>
<!-- types -->
<g id="node3" class="node">
<title>types</title>
<ellipse fill="none" stroke="#0a2e6b" cx="161.4375" cy="-18" rx="28.5497" ry="18"/>
<text text-anchor="middle" x="161.4375" y="-13.8" font-family="Times,serif" font-size="14.00" fill="#0a2e6b">types</text>
</g>
<!-- syn&#45;&gt;types -->
<g id="edge2" class="edge">
<title>syn&#45;&gt;types</title>
<path fill="none" stroke="#0a2e6b" d="M196.8195,-72.2022C191.2163,-63.6186 184.39,-53.1613 178.2336,-43.7303"/>
<polygon fill="#0a2e6b" stroke="#0a2e6b" points="180.9953,-41.5578 172.5982,-35.0972 175.1336,-45.3842 180.9953,-41.5578"/>
</g>
<!-- interp -->
<g id="node4" class="node">
<title>interp</title>
<ellipse fill="none" stroke="#0a2e6b" cx="255.4375" cy="-18" rx="46.8632" ry="18"/>
<text text-anchor="start" x="226.2891" y="-13.8" font-family="Times,serif" font-size="14.00" fill="#0a2e6b">interpreter</text>
</g>
<!-- syn&#45;&gt;interp -->
<g id="edge3" class="edge">
<title>syn&#45;&gt;interp</title>
<path fill="none" stroke="#0a2e6b" d="M220.0555,-72.2022C225.5763,-63.7448 232.2845,-53.4685 238.3693,-44.147"/>
<polygon fill="#0a2e6b" stroke="#0a2e6b" points="241.4177,-45.88 243.9532,-35.593 235.5561,-42.0536 241.4177,-45.88"/>
</g>
<!-- constraints -->
<g id="node5" class="node">
<title>constraints</title>
<ellipse fill="none" stroke="#0a2e6b" cx="368.4375" cy="-18" rx="48.3427" ry="18"/>
<text text-anchor="middle" x="368.4375" y="-13.8" font-family="Times,serif" font-size="14.00" fill="#0a2e6b">constraints</text>
</g>
<!-- syn&#45;&gt;constraints -->
<g id="edge4" class="edge">
<title>syn&#45;&gt;constraints</title>
<path fill="none" stroke="#0a2e6b" d="M241.9787,-74.9064C267.0338,-63.6317 301.3928,-48.1701 327.9733,-36.2089"/>
<polygon fill="#0a2e6b" stroke="#0a2e6b" points="329.6997,-39.2701 337.3826,-31.9747 326.8271,-32.8867 329.6997,-39.2701"/>
</g>
</g>
</svg>
